<mxfile host="app.diagrams.net" modified="2023-12-20T06:07:46.970Z" agent="Mozilla/5.0 (Windows NT 10.0; Win64; x64) AppleWebKit/537.36 (KHTML, like Gecko) Chrome/119.0.0.0 Safari/537.36" version="22.1.11" etag="YwANyZ1IncDp91B2HcNp" type="github">
  <diagram name="第 1 页" id="EuguWfBhZU7mPNBLyreZ">
    <mxGraphModel>
      <root>
        <mxCell id="0" />
        <mxCell id="1" parent="0" />
      </root>
    </mxGraphModel>
  </diagram>
</mxfile>
